<svg width="27" height="14" viewBox="0 0 27 14" fill="none" xmlns="http://www.w3.org/2000/svg">
<path d="M0.173088 7.45972L6.13102 13.4177C6.34504 13.6676 6.72117 13.6968 6.97108 13.4827C7.22099 13.2687 7.25013 12.8925 7.03605 12.6426C7.01609 12.6193 6.99438 12.5976 6.97108 12.5776L2.03195 7.63253H25.6196C25.9486 7.63253 26.2153 7.36577 26.2153 7.0367C26.2153 6.70763 25.9486 6.44092 25.6196 6.44092H2.03195L6.97108 1.50179C7.22099 1.28777 7.25013 0.911643 7.03605 0.661729C6.82198 0.411816 6.44591 0.382683 6.196 0.596756C6.1727 0.616724 6.15094 0.638433 6.13102 0.661729L0.173037 6.61971C-0.0579319 6.85202 -0.0579319 7.22732 0.173088 7.45972Z" fill="black"/>
</svg>
