<svg width="27" height="14" viewBox="0 0 27 14" fill="none" xmlns="http://www.w3.org/2000/svg">
<path d="M26.0422 7.45972L20.0843 13.4177C19.8703 13.6676 19.4942 13.6968 19.2443 13.4827C18.9943 13.2687 18.9652 12.8925 19.1793 12.6426C19.1992 12.6193 19.221 12.5976 19.2443 12.5776L24.1834 7.63253H0.595778C0.266759 7.63253 0 7.36577 0 7.0367C0 6.70763 0.266759 6.44092 0.595778 6.44092H24.1834L19.2443 1.50179C18.9943 1.28777 18.9652 0.911643 19.1793 0.661729C19.3933 0.411816 19.7694 0.382683 20.0193 0.596756C20.0426 0.616724 20.0644 0.638433 20.0843 0.661729L26.0423 6.61971C26.2733 6.85202 26.2733 7.22732 26.0422 7.45972Z" fill="black"/>
</svg>
